HIERARCHY
ROOT Hips
{
	OFFSET 302.116486 91.969017 -502.769196
	CHANNELS 6 Xposition Yposition Zposition Zrotation Yrotation Xrotation 
	JOINT LeftUpLeg
	{
		OFFSET 0.103459 1.857831 10.548511
		CHANNELS 3 Zrotation Yrotation Xrotation
		JOINT LeftLeg
		{
			OFFSET 43.500000 -0.000050 0.000000
			CHANNELS 3 Zrotation Yrotation Xrotation
			JOINT LeftFoot
			{
				OFFSET 42.372196 0.000015 0.000013
				CHANNELS 3 Zrotation Yrotation Xrotation
				JOINT LeftToe
				{
					OFFSET 17.299992 -0.000003 0.000004
					CHANNELS 3 Zrotation Yrotation Xrotation
					End Site
					{
						OFFSET 0.000000 0.000000 0.000000
					}
				}
			}
		}
	}
	JOINT RightUpLeg
	{
		OFFSET 0.103458 1.857840 -10.548509
		CHANNELS 3 Zrotation Yrotation Xrotation
		JOINT RightLeg
		{
			OFFSET 43.500038 -0.000042 -0.000002
			CHANNELS 3 Zrotation Yrotation Xrotation
			JOINT RightFoot
			{
				OFFSET 42.372261 0.000004 0.000031
				CHANNELS 3 Zrotation Yrotation Xrotation
				JOINT RightToe
				{
					OFFSET 17.299984 -0.000009 0.000004
					CHANNELS 3 Zrotation Yrotation Xrotation
					End Site
					{
						OFFSET 0.000000 0.000000 0.000000
					}
				}
			}
		}
	}
	JOINT Spine
	{
		OFFSET 6.901966 -2.603730 0.000007
		CHANNELS 3 Zrotation Yrotation Xrotation
		JOINT Spine1
		{
			OFFSET 12.588103 -0.000008 0.000003
			CHANNELS 3 Zrotation Yrotation Xrotation
			JOINT Spine2
			{
				OFFSET 12.343202 0.000024 -0.000014
				CHANNELS 3 Zrotation Yrotation Xrotation
				JOINT Neck
				{
					OFFSET 25.832888 -0.000004 0.000015
					CHANNELS 3 Zrotation Yrotation Xrotation
					JOINT Head
					{
						OFFSET 11.766605 -0.000005 -0.000022
						CHANNELS 3 Zrotation Yrotation Xrotation
						End Site
						{
							OFFSET 0.000000 0.000000 0.000000
						}
					}
				}
				JOINT LeftShoulder
				{
					OFFSET 19.745907 -1.480368 6.000113
					CHANNELS 3 Zrotation Yrotation Xrotation
					JOINT LeftArm
					{
						OFFSET 11.284131 0.000002 -0.000036
						CHANNELS 3 Zrotation Yrotation Xrotation
						JOINT LeftForeArm
						{
							OFFSET 33.000053 -0.000000 0.000032
							CHANNELS 3 Zrotation Yrotation Xrotation
							JOINT LeftHand
							{
								OFFSET 25.200001 0.000002 0.000014
								CHANNELS 3 Zrotation Yrotation Xrotation
								End Site
								{
									OFFSET 0.000000 0.000000 0.000000
								}
							}
						}
					}
				}
				JOINT RightShoulder
				{
					OFFSET 19.746090 -1.480385 -6.000069
					CHANNELS 3 Zrotation Yrotation Xrotation
					JOINT RightArm
					{
						OFFSET 11.284133 -0.000013 -0.000012
						CHANNELS 3 Zrotation Yrotation Xrotation
						JOINT RightForeArm
						{
							OFFSET 33.000103 0.000006 0.000008
							CHANNELS 3 Zrotation Yrotation Xrotation
							JOINT RightHand
							{
								OFFSET 25.199774 0.000153 0.000412
								CHANNELS 3 Zrotation Yrotation Xrotation
								End Site
								{
									OFFSET 0.000000 0.000000 0.000000
								}
							}
						}
					}
				}
			}
		}
	}
}
MOTION
Frames: 12
Frame Time: 0.033333
-308.939789 -8.748545 616.924011 85.918907 1.922302 -70.765305 -161.356735 -0.267904 177.208817 -22.110434 0.983337 7.880599 70.182297 -4.338144 3.819167 21.454546 0.003089 -0.000004 142.120087 9.148403 -178.457977 -20.837975 4.944644 7.350148 72.821762 -3.575701 6.106274 21.454554 -0.003108 -0.000019 6.708193 -0.120023 -1.721673 3.406453 -0.190146 -3.446076 3.088965 -0.210795 -3.444867 -16.809193 8.575721 -5.560360 20.295586 -19.056974 -2.134722 158.151184 -78.262329 20.687616 -38.807148 51.431702 -0.423577 -58.725842 -14.874705 2.042833 -5.645001 -13.951120 19.739531 -151.456299 73.243950 30.693684 4.332561 -58.475269 -49.504192 -29.569189 11.071404 -0.994302 2.440640 5.684714 -13.563480 
-309.355988 -9.528687 610.651672 88.877487 0.814375 -71.730400 -161.322021 -2.939807 175.373383 -28.482147 3.693067 8.053773 63.352474 -5.517183 1.152483 21.454556 0.003095 -0.000001 140.355713 4.841197 -175.460129 -29.555204 3.460899 5.764770 65.167168 -2.999266 3.525575 21.454556 -0.003110 -0.000016 6.585944 0.771071 -1.600017 3.137358 1.584445 -3.179194 2.819659 1.565366 -3.188696 -17.135822 8.201295 -4.831618 20.464737 -19.734962 -1.542205 160.622879 -77.739395 18.201273 -36.515118 52.706924 0.464386 -58.917374 -14.834420 2.047127 -5.834432 -13.970057 19.950033 -151.573563 73.206924 30.574467 4.656864 -57.850838 -49.397324 -27.844442 10.529591 -0.927741 2.865332 6.439868 -11.442771 
-309.666779 -9.547747 604.828247 91.438416 -0.417251 -73.208611 -164.071457 -5.015308 174.467590 -39.549091 6.244099 7.096840 55.065678 -6.969146 -2.905447 21.454548 0.003090 0.000007 140.239258 0.756683 -173.828918 -37.050713 2.796658 4.971325 65.857994 -3.821396 -0.238408 21.454556 -0.003111 -0.000019 6.652132 1.563447 -1.372293 3.255363 3.164160 -2.701784 2.937102 3.147942 -2.720839 -17.612169 8.166841 -4.311850 20.286655 -20.542021 -0.968495 162.122681 -77.141426 16.702650 -34.483879 54.177418 1.543469 -57.381073 -14.866506 1.993419 -5.754601 -14.186027 19.881561 -152.397202 73.163422 29.731236 2.677447 -57.165386 -47.591160 -25.887291 9.997900 -0.860286 3.118532 5.905887 -10.557296 
-309.960083 -8.915598 599.258850 93.826080 -1.512172 -74.324570 -169.815918 -6.967300 175.372894 -52.652267 7.568132 4.494137 45.917301 -7.824937 -6.771362 21.454550 0.003094 -0.000001 141.758698 -2.380995 -172.271225 -42.254719 3.067360 4.762586 71.272354 -4.142796 -1.939702 21.454554 -0.003120 -0.000021 6.825346 2.220003 -1.124711 3.597936 4.473361 -2.182402 3.279025 4.460239 -2.209408 -18.094238 8.726257 -4.280208 19.838800 -21.240454 -0.617463 161.581528 -76.905396 17.264013 -33.817451 55.681297 2.568786 -53.473717 -14.834314 1.854330 -4.854995 -14.986560 18.445786 -153.773285 73.004257 28.324038 -0.931097 -56.753117 -43.766335 -24.342575 9.887796 -0.829203 3.562551 4.201807 -11.848478 
-310.348907 -7.606829 593.656189 95.551300 -2.280252 -74.760010 -177.560135 -8.338702 177.346146 -64.656113 7.666800 4.291328 46.544594 -7.326195 -6.204545 21.454554 0.003092 0.000005 145.067947 -4.622102 -170.620422 -43.923496 3.269070 4.269389 75.519119 -3.972027 -3.005928 21.454556 -0.003092 -0.000017 6.976636 2.629696 -0.909610 3.904535 5.288124 -1.732776 3.585108 5.277708 -1.764751 -18.158569 9.533619 -4.623671 19.438028 -21.600365 -0.589851 160.481918 -77.052650 18.376287 -34.611492 56.889427 3.998152 -47.480061 -14.294512 1.624238 -2.916315 -15.553504 15.682409 -155.572006 72.743652 26.484425 -4.779915 -56.487621 -39.204342 -23.895971 10.315058 -0.850343 4.205236 2.826284 -13.990266 
-310.857483 -6.189905 588.060425 96.487106 -2.876123 -75.094124 174.418167 -8.847400 178.994690 -72.885750 7.318684 5.187498 54.852428 -6.299162 -4.110442 21.454550 0.003091 -0.000005 150.080811 -6.542215 -170.159439 -42.558857 3.408302 4.006005 78.674767 -3.751946 -3.318022 21.454557 -0.003101 -0.000020 7.079298 2.798565 -0.671870 4.120090 5.618937 -1.246111 3.800380 5.611455 -1.280114 -17.619158 10.093499 -5.004818 19.436001 -21.565451 -0.823833 160.076492 -77.369308 18.774021 -35.604668 57.911404 6.273235 -40.737846 -12.993550 1.345877 -0.638922 -14.452958 13.486570 -157.554474 72.553703 24.452883 -8.210214 -56.186993 -35.396362 -24.699268 10.960815 -0.904133 4.494386 3.269009 -14.670712 
-311.500702 -4.825777 582.306946 97.050606 -3.429908 -75.745171 166.883591 -8.755202 179.642838 -76.674950 6.964276 4.091486 59.814819 -4.506919 -2.574716 21.454556 0.003096 0.000003 155.940826 -8.491699 -171.322739 -39.474388 3.758957 4.227010 80.675018 -3.842017 -3.345706 21.454556 -0.003111 -0.000017 7.173723 2.832424 -0.382962 4.323459 5.676979 -0.661547 4.003690 5.673004 -0.695914 -16.780596 10.315405 -5.268253 19.870806 -21.249781 -1.178742 159.750702 -77.797104 19.085136 -35.481541 59.032551 9.279509 -34.638424 -11.297443 1.086432 0.930535 -11.328341 13.831883 -159.363022 72.534790 22.595768 -11.461217 -55.748096 -32.840622 -26.422710 11.562605 -0.970438 4.157058 5.565814 -12.956238 
-312.253296 -3.809731 576.481689 97.103500 -3.845089 -76.869507 160.596161 -8.220907 178.920654 -76.127472 6.761508 2.720130 63.956543 -2.472641 -0.496051 21.454550 0.003097 -0.000002 162.333572 -9.926898 -173.750992 -35.498951 4.312666 4.606646 81.605652 -4.053832 -3.203738 21.454557 -0.003116 -0.000019 7.260853 2.709005 -0.043872 4.514296 5.417569 0.017144 4.194630 5.417720 -0.015665 -16.020815 10.340569 -5.458328 20.420624 -20.804150 -1.541331 158.596191 -78.333405 20.232243 -33.536793 60.422512 13.050275 -29.926159 -9.757079 0.888924 1.578963 -7.064818 16.734549 -160.665588 72.727020 21.255089 -14.781116 -55.281754 -31.078169 -28.819050 12.222227 -1.054892 3.592088 8.375174 -10.072462 
-313.048096 -3.417382 570.689575 96.854942 -3.900961 -78.335678 155.126984 -7.639296 177.300415 -72.079567 6.572880 2.101651 67.858315 -1.630998 0.364649 21.454554 0.003098 0.000001 168.530518 -10.763197 -176.455490 -31.487743 4.553294 4.830750 82.144547 -4.144158 -3.001430 21.454561 -0.003123 -0.000019 7.291882 2.492151 0.326033 4.591516 4.969457 0.750624 4.272128 4.974039 0.720536 -15.429742 10.165564 -5.575506 20.769739 -20.315086 -1.839004 157.265503 -78.831802 21.558252 -29.702087 61.785500 17.880423 -26.890263 -8.685237 0.764896 1.813521 -2.502551 20.630884 -161.419617 73.201889 20.474714 -18.106659 -54.865208 -29.364403 -31.878908 13.108590 -1.171841 3.111835 10.287637 -8.006968 
-313.857788 -3.490342 564.868408 96.955315 -3.622989 -80.063095 150.633636 -7.619402 175.496216 -65.072319 6.180004 2.359019 71.333702 -1.674526 0.657172 21.454548 0.003090 0.000001 173.926407 -11.317705 -178.409470 -28.343319 4.560207 4.664714 82.775848 -3.970090 -2.862191 21.454556 -0.003096 -0.000016 7.249386 2.347272 0.721265 4.520909 4.664750 1.534201 4.201789 4.674075 1.505950 -14.924915 9.697636 -5.521071 20.793604 -19.800228 -1.990584 157.361755 -79.133690 21.445475 -24.104275 62.767063 23.950319 -25.534838 -8.186810 0.710354 2.072270 1.809370 23.835596 -161.887787 73.953339 19.985435 -21.304560 -54.370583 -27.286964 -35.578674 14.141359 -1.319995 2.586934 10.891722 -7.772706 
-314.673096 -3.624818 559.170044 97.238800 -3.125811 -82.059319 147.383026 -7.952607 173.563278 -55.192230 5.645816 2.891638 73.148308 -1.964307 0.802778 21.454550 0.003092 -0.000000 178.887802 -11.380403 -179.665039 -25.736790 4.729929 3.784089 83.328758 -3.423468 -3.188006 21.454554 -0.003113 -0.000016 7.174130 2.260776 1.130243 4.384655 4.477484 2.346385 4.065781 4.491700 2.319278 -14.511867 8.963128 -5.238188 20.470848 -19.276009 -1.930951 159.902069 -79.190491 18.865942 -17.284483 63.182510 30.755812 -25.489960 -8.100826 0.703991 2.310352 4.945209 25.250507 -162.518280 74.795296 19.330051 -24.300602 -53.558357 -24.863918 -39.762505 15.086759 -1.485094 1.833270 10.665203 -9.057402 
-315.471497 -4.065766 553.545654 96.948067 -2.432553 -84.226181 145.860077 -7.941695 171.468292 -42.014526 4.702136 3.844470 72.704704 -2.514662 1.053798 21.454550 0.003093 -0.000000 -176.089462 -10.409689 178.784119 -22.500051 5.122121 2.816547 83.215721 -2.921167 -3.856946 21.454557 -0.003118 -0.000014 7.122803 2.080763 1.522105 4.291474 4.104193 3.121622 3.973001 4.123083 3.096774 -14.309213 8.082081 -4.779844 19.868282 -18.777790 -1.679876 164.924591 -78.999489 13.776484 -10.623617 63.025558 36.979637 -26.029963 -8.057958 0.709659 2.138612 5.787186 24.524052 -163.950485 75.541161 17.857550 -26.994120 -52.339878 -22.263651 -44.141682 15.837193 -1.655363 0.808879 10.259883 -10.977830 
